<?xml version="1.0" standalone="no"?>
<!DOCTYPE svg PUBLIC "-//W3C//DTD SVG 20010904//EN"
 "http://www.w3.org/TR/2001/REC-SVG-20010904/DTD/svg10.dtd">
<svg version="1.0" xmlns="http://www.w3.org/2000/svg"
 width="175.000000pt" height="78.000000pt" viewBox="0 0 175.000000 78.000000"
 preserveAspectRatio="xMidYMid meet">

<g transform="translate(0.000000,78.000000) scale(0.100000,-0.100000)"
fill="#000000" stroke="none">
<path d="M868 533 c-23 -6 -25 -63 -3 -63 8 0 15 7 15 15 0 9 7 18 15 21 8 4
15 12 15 20 0 14 -10 16 -42 7z"/>
<path d="M862 444 c-26 -11 -31 -18 -23 -28 7 -8 9 -35 5 -74 -7 -68 2 -80 51
-68 27 7 35 36 10 36 -14 0 -15 11 -9 75 4 41 5 75 3 74 -2 0 -19 -7 -37 -15z"/>
<path d="M680 166 c0 -53 3 -66 15 -66 13 0 15 11 13 62 -2 38 -8 63 -15 66
-10 3 -13 -14 -13 -62z"/>
<path d="M750 165 c0 -37 4 -65 10 -65 6 0 10 16 10 35 0 22 8 43 20 55 20 20
26 40 12 40 -4 0 -13 -5 -20 -12 -9 -9 -12 -9 -12 0 0 7 -4 12 -10 12 -6 0
-10 -28 -10 -65z"/>
<path d="M840 170 c0 -47 4 -61 18 -69 10 -5 24 -6 31 -2 7 5 22 6 33 3 18 -4
19 0 16 58 -2 40 -8 65 -15 68 -9 2 -13 -10 -13 -41 0 -45 -19 -75 -40 -62 -5
3 -10 28 -10 56 0 27 -4 49 -10 49 -6 0 -10 -27 -10 -60z"/>
<path d="M980 165 c0 -37 4 -65 10 -65 6 0 10 14 10 31 0 38 16 69 35 69 11 0
15 -13 15 -50 0 -38 4 -50 15 -50 18 0 21 80 5 111 -12 21 -40 25 -58 7 -9 -9
-12 -9 -12 0 0 7 -4 12 -10 12 -6 0 -10 -28 -10 -65z"/>
<path d="M871 34 c0 -11 3 -14 6 -6 3 7 2 16 -1 19 -3 4 -6 -2 -5 -13z"/>
<path d="M931 33 c0 -12 2 -14 6 -4 5 11 7 11 15 0 8 -12 9 -12 6 0 -6 22 -28
25 -27 4z"/>
<path d="M992 36 c1 -10 8 -17 13 -17 15 1 12 24 -3 29 -9 3 -13 -2 -10 -12z"/>
<path d="M1056 41 c-4 -6 -3 -19 3 -28 9 -17 10 -17 17 0 8 21 -10 45 -20 28z"/>
<path d="M685 30 c3 -5 13 -10 21 -10 8 0 14 5 14 10 0 6 -9 10 -21 10 -11 0
-17 -4 -14 -10z"/>
<path d="M730 30 c0 -5 9 -10 20 -10 11 0 20 5 20 10 0 6 -9 10 -20 10 -11 0
-20 -4 -20 -10z"/>
<path d="M780 30 c0 -5 9 -10 20 -10 11 0 20 5 20 10 0 6 -9 10 -20 10 -11 0
-20 -4 -20 -10z"/>
<path d="M892 28 c4 -12 22 -12 26 0 1 5 -4 9 -13 9 -9 0 -14 -4 -13 -9z"/>
</g>
</svg>
